<?xml version="1.0" standalone="no"?>
<!DOCTYPE svg PUBLIC "-//W3C//DTD SVG 20010904//EN"
 "http://www.w3.org/TR/2001/REC-SVG-20010904/DTD/svg10.dtd">
<svg version="1.0" xmlns="http://www.w3.org/2000/svg"
 width="1707.000000pt" height="1707.000000pt" viewBox="0 0 1707.000000 1707.000000"
 preserveAspectRatio="xMidYMid meet">
<metadata>
Created by potrace 1.14, written by Peter Selinger 2001-2017
</metadata>
<g transform="translate(0.000000,1707.000000) scale(0.100000,-0.100000)"
fill="#000000" stroke="none">
<path d="M8419 16908 c-407 -512 -811 -1150 -1119 -1768 -82 -162 -114 -231
-192 -400 -33 -72 -189 -439 -193 -455 -1 -5 -5 -17 -8 -25 -86 -204 -236
-668 -306 -945 -28 -111 -94 -407 -105 -472 -3 -15 -12 -71 -21 -123 -23 -135
-25 -149 -40 -270 -3 -22 -7 -57 -10 -77 -25 -197 -37 -737 -21 -938 13 -154
54 -317 143 -553 72 -196 211 -441 470 -834 48 -73 90 -137 93 -143 3 -5 80
-122 171 -260 91 -137 205 -313 253 -390 47 -77 91 -147 96 -155 12 -19 131
-223 160 -275 56 -98 193 -381 240 -495 29 -69 58 -138 65 -155 39 -90 140
-380 171 -495 20 -70 64 -230 68 -250 27 -107 69 -293 81 -356 8 -43 17 -90
20 -104 8 -42 35 -203 39 -240 3 -19 9 -69 15 -110 16 -120 31 -265 34 -327 0
-7 4 -13 9 -13 4 0 8 6 9 13 0 6 2 19 3 27 2 8 6 42 10 75 3 33 8 74 10 90 2
17 7 57 11 90 3 33 8 74 11 90 2 17 6 53 10 80 3 28 7 59 9 70 2 11 6 38 10
60 3 22 8 51 11 65 2 14 7 39 10 55 74 442 247 998 438 1415 74 159 248 501
296 578 16 27 30 52 30 55 0 3 22 41 50 84 27 43 61 98 76 123 15 25 115 178
222 340 386 583 421 637 525 810 128 214 216 392 276 565 37 103 87 296 97
370 3 28 8 59 10 70 25 116 24 665 -1 828 -2 12 -6 53 -10 91 -4 38 -8 79 -10
90 -2 12 -6 44 -10 71 -5 49 -10 78 -20 140 -3 17 -7 50 -11 75 -3 25 -9 61
-14 80 -5 19 -11 51 -14 71 -17 113 -98 461 -152 649 -14 52 -32 115 -39 140
-65 230 -260 755 -367 990 -11 25 -38 86 -60 135 -45 102 -229 474 -286 580
-139 256 -113 211 -268 468 -144 241 -133 222 -168 277 -52 82 -220 335 -229
345 -4 6 -45 62 -90 125 -114 159 -208 288 -231 314 -10 11 -30 37 -44 56 -31
42 -94 110 -102 110 -3 0 -53 -60 -111 -132z"/>
<path d="M13027 10494 c-1 -1 -67 -4 -147 -8 -134 -6 -162 -8 -245 -21 -16 -3
-48 -7 -70 -11 -58 -8 -274 -53 -315 -65 -19 -5 -75 -21 -125 -34 -259 -69
-607 -213 -868 -362 -141 -79 -471 -303 -507 -343 -3 -3 -43 -36 -89 -74 -97
-79 -84 -68 -227 -207 -172 -168 -261 -267 -406 -449 -86 -109 -232 -316 -278
-393 -17 -29 -49 -81 -70 -116 -22 -34 -40 -67 -40 -71 0 -5 -3 -10 -7 -12 -5
-1 -18 -21 -30 -43 -41 -73 -250 -499 -273 -555 -12 -30 -28 -68 -36 -85 -7
-16 -35 -88 -63 -160 -140 -371 -247 -744 -330 -1160 -30 -150 -35 -176 -46
-249 -4 -21 -9 -48 -11 -60 -2 -11 -7 -44 -10 -72 -7 -55 -3 -61 59 -69 27 -3
145 -23 172 -29 120 -25 381 -106 475 -148 83 -38 88 -39 94 -20 3 9 8 46 11
82 8 76 6 62 40 214 54 239 172 514 308 716 30 45 107 150 117 160 3 3 20 23
39 45 76 91 234 246 326 321 124 101 178 139 370 260 68 42 262 140 318 160
22 8 45 18 51 23 6 4 65 26 131 49 217 74 377 113 560 137 11 2 45 6 75 10 80
11 332 13 426 4 139 -14 345 -63 444 -106 238 -104 382 -204 559 -386 182
-189 317 -459 338 -678 11 -112 8 -374 -6 -467 -18 -122 -53 -226 -128 -377
-126 -253 -339 -448 -553 -505 -25 -7 -85 -14 -134 -15 -132 -5 -173 25 -78
56 69 23 228 108 293 158 162 122 282 309 338 526 21 83 29 267 16 390 -12
114 -86 294 -175 425 -136 200 -400 356 -670 395 -19 3 -46 8 -59 11 -33 7
-246 7 -296 -1 -199 -30 -359 -95 -510 -210 -224 -169 -383 -402 -480 -699
-57 -177 -67 -253 -67 -521 0 -216 15 -306 77 -482 90 -255 242 -473 450 -645
85 -71 268 -179 360 -213 28 -10 55 -22 60 -26 6 -4 62 -23 125 -43 288 -92
584 -124 949 -103 68 4 126 9 130 11 3 2 31 7 61 10 458 53 1049 325 1525 699
88 70 102 81 194 162 140 123 331 326 490 520 228 281 402 629 505 1010 35
129 89 384 101 480 4 28 9 66 11 85 18 128 22 195 22 355 -1 203 -9 294 -44
485 -29 165 -101 411 -162 555 -218 518 -594 957 -1077 1260 -209 131 -481
259 -730 343 -96 33 -337 97 -395 106 -19 3 -46 8 -60 11 -24 6 -39 9 -100 20
-14 3 -48 7 -76 10 -28 3 -61 8 -75 10 -48 10 -542 26 -552 19z"/>
<path d="M3570 10487 c-3 -3 -35 -8 -72 -11 -37 -3 -77 -8 -90 -10 -13 -3 -41
-8 -62 -11 -21 -3 -48 -7 -60 -10 -12 -3 -32 -7 -46 -9 -14 -3 -35 -7 -46 -10
-12 -2 -37 -7 -55 -10 -19 -3 -77 -17 -129 -31 -52 -14 -102 -27 -110 -30 -34
-8 -250 -84 -315 -110 -116 -45 -363 -169 -480 -240 -93 -56 -268 -176 -285
-194 -3 -4 -25 -22 -50 -41 -59 -45 -109 -90 -196 -175 -391 -384 -642 -853
-753 -1410 -24 -123 -28 -145 -46 -305 -6 -54 -7 -343 -1 -385 2 -16 7 -66 11
-110 4 -44 9 -89 11 -100 2 -11 7 -36 10 -55 7 -42 42 -237 48 -265 25 -124
133 -488 165 -560 5 -11 17 -38 26 -60 30 -69 106 -219 126 -247 11 -14 19
-29 19 -33 0 -10 136 -210 193 -283 250 -322 590 -647 892 -853 44 -30 82 -57
85 -60 3 -3 61 -40 130 -81 203 -122 418 -225 625 -298 90 -31 327 -96 393
-106 19 -3 43 -7 52 -9 10 -2 40 -7 67 -11 26 -3 57 -8 68 -10 142 -26 518
-23 695 6 111 18 119 20 208 41 510 118 881 392 1080 794 42 85 93 210 108
265 36 136 44 203 43 400 0 255 0 236 -11 295 -5 28 -11 66 -14 85 -12 75 -77
250 -134 365 -120 241 -308 443 -520 558 -365 200 -869 165 -1206 -84 -118
-87 -199 -187 -278 -346 -63 -124 -86 -211 -94 -345 -15 -253 30 -439 152
-628 102 -157 243 -270 444 -355 52 -22 98 -45 104 -52 18 -21 -29 -31 -132
-28 -182 6 -325 75 -480 234 -150 153 -272 383 -324 613 -20 88 -27 397 -12
533 14 128 99 347 186 476 80 118 192 238 330 352 159 132 451 266 655 302
220 38 495 40 705 5 30 -5 71 -11 90 -14 142 -22 448 -115 615 -188 101 -44
294 -144 358 -186 23 -14 49 -31 58 -37 198 -122 475 -360 594 -510 22 -27 42
-52 45 -55 3 -3 23 -30 45 -60 120 -163 199 -307 295 -535 39 -95 91 -277 106
-375 3 -19 7 -41 9 -48 3 -8 8 -44 11 -80 9 -93 15 -97 94 -60 96 44 338 122
445 144 92 18 247 47 260 48 40 4 -86 641 -215 1086 -41 139 -110 356 -128
400 -6 14 -32 81 -57 150 -26 69 -55 143 -65 165 -10 22 -32 74 -50 115 -101
235 -313 619 -457 830 -24 34 -43 64 -43 66 0 2 -7 12 -15 21 -8 10 -48 63
-89 118 -449 604 -1018 1060 -1696 1358 -217 95 -602 209 -855 252 -16 3 -39
7 -50 9 -25 4 -128 18 -175 22 -63 6 -755 16 -760 11z"/>
<path d="M8337 5544 c-1 -1 -47 -4 -102 -8 -55 -3 -111 -8 -125 -11 -14 -2
-36 -6 -50 -9 -131 -24 -254 -54 -350 -87 -63 -22 -119 -41 -125 -43 -64 -20
-216 -99 -300 -156 -90 -61 -189 -160 -232 -231 -47 -80 -62 -145 -60 -252 2
-85 5 -100 39 -169 93 -188 346 -367 663 -469 69 -23 234 -65 285 -74 19 -3
42 -8 50 -10 8 -2 40 -7 70 -10 30 -3 71 -8 90 -10 56 -9 263 -15 425 -14 152
1 177 2 275 14 95 11 122 16 220 36 52 11 106 22 120 25 14 3 79 23 145 45
383 128 639 332 690 553 17 73 10 191 -15 259 -54 145 -212 293 -429 402 -171
85 -411 160 -618 191 -21 3 -49 7 -63 9 -80 12 -189 18 -383 19 -120 1 -219 1
-220 0z"/>
<path d="M7732 3741 c-5 -3 -9 -31 -9 -61 -1 -74 -12 -290 -17 -315 -2 -11 -7
-51 -11 -90 -4 -38 -8 -72 -10 -75 -2 -3 -6 -28 -9 -57 -3 -28 -12 -89 -21
-135 -8 -45 -17 -96 -20 -113 -3 -16 -8 -41 -11 -55 -3 -14 -8 -38 -11 -55
-11 -67 -85 -348 -108 -409 -40 -107 -115 -250 -165 -318 -69 -92 -215 -229
-285 -266 -97 -53 -217 -96 -320 -117 -49 -10 -307 -14 -350 -6 -57 11 -71 4
-43 -21 172 -151 443 -288 618 -313 91 -14 295 -13 370 0 112 20 259 75 345
129 72 45 112 73 140 96 63 51 202 198 245 259 62 87 87 117 94 110 4 -3 -9
-54 -28 -113 -59 -180 -69 -241 -72 -461 -3 -182 6 -298 31 -420 22 -112 103
-329 178 -480 90 -179 245 -425 269 -425 13 0 23 12 91 115 223 334 353 663
386 975 9 83 7 405 -2 445 -3 11 -13 51 -21 90 -15 61 -60 216 -73 253 -14 36
23 1 95 -90 44 -57 105 -128 135 -159 148 -154 383 -290 541 -315 21 -3 48 -8
60 -10 58 -12 305 -11 366 2 210 45 457 167 591 293 l54 51 -40 -7 c-51 -10
-281 -10 -360 1 -362 45 -651 304 -794 711 -28 79 -90 306 -106 390 -31 159
-66 359 -70 400 -3 27 -7 61 -10 75 -6 40 -15 147 -20 250 -5 106 -16 244 -18
246 -1 1 -42 -7 -92 -18 -256 -52 -236 -51 -705 -51 -464 -1 -482 1 -697 48
-56 12 -106 19 -111 16z"/>
</g>
</svg>
